M48
;GenerationSoftware,Autodesk,EAGLE,9.6.2*%
;CreationDate,2023-05-03T01:38:41Z*%
FMAT,2
ICI,OFF
METRIC,TZ,000.000
T8C0.350
T7C0.600
T6C1.000
T5C1.300
T4C1.400
T3C2.200
T2C3.000
T1C3.175
%
G90
M71
T1
X5080Y5080
X121920Y83820
X121920Y5080
X5080Y83820
T2
X90170Y24765
X90170Y81915
X13970Y24765
X13970Y81915
T3
X103360Y25740
X120160Y25740
T4
X34390Y12740
X67410Y12740
X79910Y12740
X79910Y17740
X97690Y12740
X50900Y17740
X50900Y12740
X63400Y12740
X63400Y17740
X46890Y17740
X46890Y12740
X34390Y17740
X85190Y17740
X85190Y12740
X97690Y17740
X67410Y17740
T5
X109260Y32640
X114260Y32740
X111760Y15240
X116760Y15240
X106760Y15240
T6
X13970Y57150
X13970Y52070
X13970Y49530
X13970Y46990
X13970Y44450
X13970Y41910
X13970Y39370
X13970Y36830
X109260Y43180
X111760Y43180
X114260Y43180
X13970Y34290
X13970Y31750
X13970Y29210
X13970Y54610
X13970Y77470
X13970Y74930
X13970Y72390
X13970Y69850
X13970Y67310
X13970Y64770
X13970Y62230
X13970Y59690
T7
X30734Y70866
X33274Y43434
X38354Y43434
X40894Y43434
X30734Y45466
X29210Y19050
X29210Y21590
X29210Y24130
X38354Y45466
X35814Y45466
X33274Y45466
X51054Y70866
X48514Y70866
X45974Y70866
X28194Y70866
X35814Y70866
X53594Y68834
X33274Y70866
X29210Y26670
X68834Y68834
X66294Y68834
X25654Y70866
X48514Y43434
X51054Y68834
X53594Y70866
X35814Y43434
X45974Y43434
X45974Y45466
T8
X50800Y24765
X67310Y24765
X85090Y24765
X12700Y12700
X27940Y12700
X27940Y33020
X12700Y33020
X9525Y11430
X34290Y36195
M30