999
"DXF R12 Output" (www.mydxf.blogspot.com)
 0 
SECTION
 2 
HEADER
 9 
$ACADVER
 1 
AC1009
 9 
$EXTMIN
 10 
 0 
 20 
 0 
 9 
$EXTMAX
 10 
 8.5 
 20 
 11 
 0 
ENDSEC
 0 
SECTION
 2 
ENTITIES
0
LINE
8
Layer 1
10
4.808290
20
19.166400
11
0.833400
21
15.601120
0
LINE
8
Layer 1
10
0.833400
20
15.601120
11
15.191600
21
15.601100
0
LINE
8
Layer 1
10
15.191600
20
15.601100
11
19.166490
21
19.166380
0
LINE
8
Layer 1
10
15.191600
20
1.242900
11
19.166490
21
4.808180
0
LINE
8
Layer 1
10
7.619500
20
4.442260
11
7.347138
21
3.830885
0
LINE
8
Layer 1
10
7.347138
20
3.830885
11
6.816479
21
3.385264
0
LINE
8
Layer 1
10
6.816479
20
3.385264
11
6.102878
21
3.146641
0
LINE
8
Layer 1
10
6.102878
20
3.146641
11
5.281690
21
3.156260
0
LINE
8
Layer 1
10
5.281690
20
3.156260
11
4.505278
21
3.423893
0
LINE
8
Layer 1
10
4.505278
20
3.423893
11
3.913801
21
3.889001
0
LINE
8
Layer 1
10
3.913801
20
3.889001
11
3.564314
21
4.487364
0
LINE
8
Layer 1
10
3.564314
20
4.487364
11
3.513870
21
5.154760
0
LINE
8
Layer 1
10
3.513870
20
5.154760
11
3.786238
21
5.766140
0
LINE
8
Layer 1
10
3.786238
20
5.766140
11
4.316900
21
6.211760
0
LINE
8
Layer 1
10
4.316900
20
6.211760
11
5.030502
21
6.450380
0
LINE
8
Layer 1
10
5.030502
20
6.450380
11
5.851690
21
6.440760
0
LINE
8
Layer 1
10
5.851690
20
6.440760
11
6.628102
21
6.173129
0
LINE
8
Layer 1
10
6.628102
20
6.173129
11
7.219577
21
5.708023
0
LINE
8
Layer 1
10
7.219577
20
5.708023
11
7.569062
21
5.109660
0
LINE
8
Layer 1
10
7.569062
20
5.109660
11
7.619500
21
4.442260
0
LINE
8
Layer 1
10
7.619500
20
4.442260
11
7.619500
21
4.442260
0
LINE
8
Layer 1
10
8.249030
20
12.943800
11
8.526177
21
13.431400
0
LINE
8
Layer 1
10
8.526177
20
13.431400
11
9.048860
21
13.634000
0
LINE
8
Layer 1
10
9.048860
20
13.634000
11
11.597740
21
13.699176
0
LINE
8
Layer 1
10
11.597740
20
13.699176
11
11.761400
21
13.686800
0
LINE
8
Layer 1
10
11.761400
20
13.686800
11
12.298809
21
13.344855
0
LINE
8
Layer 1
10
12.298809
20
13.344855
11
12.440169
21
12.723995
0
LINE
8
Layer 1
10
12.440169
20
12.723995
11
12.186500
21
11.262400
0
LINE
8
Layer 1
10
12.186500
20
11.262400
11
7.938380
21
11.153800
0
LINE
8
Layer 1
10
7.938380
20
11.153800
11
8.249030
21
12.943800
 0 
ENDSEC
 0 
EOF