<?xml version="1.0" encoding="UTF-8" standalone="no"?>
<!DOCTYPE svg PUBLIC "-//W3C//DTD SVG 1.1//EN" "http://www.w3.org/Graphics/SVG/1.1/DTD/svg11.dtd">
<svg width="100%" height="100%" viewBox="0 0 64 64" version="1.1" xmlns="http://www.w3.org/2000/svg" xmlns:xlink="http://www.w3.org/1999/xlink" xml:space="preserve" xmlns:serif="http://www.serif.com/" style="fill-rule:evenodd;clip-rule:evenodd;stroke-linecap:round;stroke-linejoin:round;stroke-miterlimit:1.5;">
    <g transform="matrix(1,0,0,1,12.7191,-7.61698)">
        <rect x="6.678" y="18.558" width="34.457" height="34.457" style="fill:none;stroke:black;stroke-width:4px;"/>
    </g>
    <g transform="matrix(1,0,0,1,3.17978,0.939475)">
        <rect x="6.678" y="18.558" width="34.457" height="34.457" style="fill:white;fill-opacity:0.53;stroke:black;stroke-width:4px;"/>
    </g>
    <g transform="matrix(1,0,0,1,3.17978,0.939475)">
        <path d="M16.217,10.002L6.678,18.558L41.135,18.558L50.674,10.002" style="fill:none;stroke:black;stroke-width:4px;"/>
    </g>
    <g transform="matrix(1,0,0,1,3.17978,0.939475)">
        <path d="M41.135,53.015L50.674,44.459" style="fill:none;stroke:black;stroke-width:4px;"/>
    </g>
    <g id="music-note.svg" transform="matrix(1.97055,0.341973,-0.341973,1.97055,25.8825,36.0819)">
        <g transform="matrix(1,0,0,1,-8,-8)">
            <path d="M9,13C9,14.105 7.88,15 6.5,15C5.12,15 4,14.105 4,13C4,11.895 5.12,11 6.5,11C7.88,11 9,11.895 9,13Z" style="fill-rule:nonzero;"/>
            <rect x="8" y="3" width="1" height="10"/>
            <path d="M8,2.82C8,2.345 8.339,1.933 8.804,1.84L11.804,1.24C11.869,1.227 11.934,1.221 12,1.221C12.548,1.221 13,1.672 13,2.22L13,4L8,5L8,2.82Z" style="fill-rule:nonzero;"/>
        </g>
    </g>
</svg>
