G04 EAGLE Gerber RS-274X export*
G75*
%MOMM*%
%FSLAX34Y34*%
%LPD*%
%INCopper Layer 15*%
%IPPOS*%
%AMOC8*
5,1,8,0,0,1.08239X$1,22.5*%
G01*
%ADD10C,1.960000*%
%ADD11C,1.400000*%
%ADD12C,0.904800*%
%ADD13C,1.820000*%
%ADD14C,3.080000*%
%ADD15C,4.016000*%
%ADD16C,4.191000*%
%ADD17C,0.654800*%

G36*
X1266308Y2556D02*
X1266308Y2556D01*
X1266427Y2563D01*
X1266465Y2576D01*
X1266506Y2581D01*
X1266616Y2624D01*
X1266729Y2661D01*
X1266764Y2683D01*
X1266801Y2698D01*
X1266897Y2767D01*
X1266998Y2831D01*
X1267026Y2861D01*
X1267059Y2884D01*
X1267135Y2976D01*
X1267216Y3063D01*
X1267236Y3098D01*
X1267261Y3129D01*
X1267312Y3237D01*
X1267370Y3341D01*
X1267380Y3381D01*
X1267397Y3417D01*
X1267419Y3534D01*
X1267449Y3649D01*
X1267453Y3709D01*
X1267457Y3729D01*
X1267455Y3750D01*
X1267459Y3810D01*
X1267459Y885190D01*
X1267444Y885308D01*
X1267437Y885427D01*
X1267424Y885465D01*
X1267419Y885506D01*
X1267376Y885616D01*
X1267339Y885729D01*
X1267317Y885764D01*
X1267302Y885801D01*
X1267233Y885897D01*
X1267169Y885998D01*
X1267139Y886026D01*
X1267116Y886059D01*
X1267024Y886135D01*
X1266937Y886216D01*
X1266902Y886236D01*
X1266871Y886261D01*
X1266763Y886312D01*
X1266659Y886370D01*
X1266619Y886380D01*
X1266583Y886397D01*
X1266466Y886419D01*
X1266351Y886449D01*
X1266291Y886453D01*
X1266271Y886457D01*
X1266250Y886455D01*
X1266190Y886459D01*
X3810Y886459D01*
X3692Y886444D01*
X3573Y886437D01*
X3535Y886424D01*
X3494Y886419D01*
X3384Y886376D01*
X3271Y886339D01*
X3236Y886317D01*
X3199Y886302D01*
X3103Y886233D01*
X3002Y886169D01*
X2974Y886139D01*
X2941Y886116D01*
X2865Y886024D01*
X2784Y885937D01*
X2764Y885902D01*
X2739Y885871D01*
X2688Y885763D01*
X2630Y885659D01*
X2620Y885619D01*
X2603Y885583D01*
X2581Y885466D01*
X2551Y885351D01*
X2547Y885291D01*
X2543Y885271D01*
X2545Y885250D01*
X2541Y885190D01*
X2541Y3810D01*
X2556Y3692D01*
X2563Y3573D01*
X2576Y3535D01*
X2581Y3494D01*
X2624Y3384D01*
X2661Y3271D01*
X2683Y3236D01*
X2698Y3199D01*
X2767Y3103D01*
X2831Y3002D01*
X2861Y2974D01*
X2884Y2941D01*
X2976Y2865D01*
X3063Y2784D01*
X3098Y2764D01*
X3129Y2739D01*
X3237Y2688D01*
X3341Y2630D01*
X3381Y2620D01*
X3417Y2603D01*
X3534Y2581D01*
X3649Y2551D01*
X3709Y2547D01*
X3729Y2543D01*
X3750Y2545D01*
X3810Y2541D01*
X1266190Y2541D01*
X1266308Y2556D01*
G37*
%LPC*%
G36*
X1214526Y814704D02*
X1214526Y814704D01*
X1205891Y818281D01*
X1199281Y824891D01*
X1195704Y833526D01*
X1195704Y842874D01*
X1199281Y851509D01*
X1205891Y858119D01*
X1214526Y861696D01*
X1223874Y861696D01*
X1232509Y858119D01*
X1239119Y851509D01*
X1242696Y842874D01*
X1242696Y833526D01*
X1239119Y824891D01*
X1232509Y818281D01*
X1223874Y814704D01*
X1214526Y814704D01*
G37*
%LPD*%
%LPC*%
G36*
X46126Y814704D02*
X46126Y814704D01*
X37491Y818281D01*
X30881Y824891D01*
X27304Y833526D01*
X27304Y842874D01*
X30881Y851509D01*
X37491Y858119D01*
X46126Y861696D01*
X55474Y861696D01*
X64109Y858119D01*
X70719Y851509D01*
X74296Y842874D01*
X74296Y833526D01*
X70719Y824891D01*
X64109Y818281D01*
X55474Y814704D01*
X46126Y814704D01*
G37*
%LPD*%
%LPC*%
G36*
X46126Y27304D02*
X46126Y27304D01*
X37491Y30881D01*
X30881Y37491D01*
X27304Y46126D01*
X27304Y55474D01*
X30881Y64109D01*
X37491Y70719D01*
X46126Y74296D01*
X55474Y74296D01*
X64109Y70719D01*
X70719Y64109D01*
X74296Y55474D01*
X74296Y46126D01*
X70719Y37491D01*
X64109Y30881D01*
X55474Y27304D01*
X46126Y27304D01*
G37*
%LPD*%
%LPC*%
G36*
X1214526Y27304D02*
X1214526Y27304D01*
X1205891Y30881D01*
X1199281Y37491D01*
X1195704Y46126D01*
X1195704Y55474D01*
X1199281Y64109D01*
X1205891Y70719D01*
X1214526Y74296D01*
X1223874Y74296D01*
X1232509Y70719D01*
X1239119Y64109D01*
X1242696Y55474D01*
X1242696Y46126D01*
X1239119Y37491D01*
X1232509Y30881D01*
X1223874Y27304D01*
X1214526Y27304D01*
G37*
%LPD*%
%LPC*%
G36*
X897200Y796529D02*
X897200Y796529D01*
X888886Y799973D01*
X882523Y806336D01*
X879079Y814650D01*
X879079Y823650D01*
X882523Y831964D01*
X888886Y838327D01*
X897200Y841771D01*
X906200Y841771D01*
X914514Y838327D01*
X920877Y831964D01*
X924321Y823650D01*
X924321Y814650D01*
X920877Y806336D01*
X914514Y799973D01*
X906200Y796529D01*
X897200Y796529D01*
G37*
%LPD*%
%LPC*%
G36*
X135200Y796529D02*
X135200Y796529D01*
X126886Y799973D01*
X120523Y806336D01*
X117079Y814650D01*
X117079Y823650D01*
X120523Y831964D01*
X126886Y838327D01*
X135200Y841771D01*
X144200Y841771D01*
X152514Y838327D01*
X158877Y831964D01*
X162321Y823650D01*
X162321Y814650D01*
X158877Y806336D01*
X152514Y799973D01*
X144200Y796529D01*
X135200Y796529D01*
G37*
%LPD*%
%LPC*%
G36*
X135200Y225029D02*
X135200Y225029D01*
X126886Y228473D01*
X120523Y234836D01*
X117079Y243150D01*
X117079Y252150D01*
X120523Y260464D01*
X126886Y266827D01*
X135200Y270271D01*
X144200Y270271D01*
X152514Y266827D01*
X158877Y260464D01*
X162321Y252150D01*
X162321Y243150D01*
X158877Y234836D01*
X152514Y228473D01*
X144200Y225029D01*
X135200Y225029D01*
G37*
%LPD*%
%LPC*%
G36*
X897200Y225029D02*
X897200Y225029D01*
X888886Y228473D01*
X882523Y234836D01*
X879079Y243150D01*
X879079Y252150D01*
X882523Y260464D01*
X888886Y266827D01*
X897200Y270271D01*
X906200Y270271D01*
X914514Y266827D01*
X920877Y260464D01*
X924321Y252150D01*
X924321Y243150D01*
X920877Y234836D01*
X914514Y228473D01*
X906200Y225029D01*
X897200Y225029D01*
G37*
%LPD*%
%LPC*%
G36*
X1030031Y239459D02*
X1030031Y239459D01*
X1023437Y242191D01*
X1018391Y247237D01*
X1015659Y253831D01*
X1015659Y260969D01*
X1018391Y267563D01*
X1023437Y272609D01*
X1030031Y275341D01*
X1037169Y275341D01*
X1043763Y272609D01*
X1048809Y267563D01*
X1051541Y260969D01*
X1051541Y253831D01*
X1048809Y247237D01*
X1043763Y242191D01*
X1037169Y239459D01*
X1030031Y239459D01*
G37*
%LPD*%
%LPC*%
G36*
X1198031Y239459D02*
X1198031Y239459D01*
X1191437Y242191D01*
X1186391Y247237D01*
X1183659Y253831D01*
X1183659Y260969D01*
X1186391Y267563D01*
X1191437Y272609D01*
X1198031Y275341D01*
X1205169Y275341D01*
X1211763Y272609D01*
X1216809Y267563D01*
X1219541Y260969D01*
X1219541Y253831D01*
X1216809Y247237D01*
X1211763Y242191D01*
X1205169Y239459D01*
X1198031Y239459D01*
G37*
%LPD*%
%LPC*%
G36*
X671645Y115059D02*
X671645Y115059D01*
X667110Y116938D01*
X663638Y120410D01*
X661759Y124945D01*
X661759Y129855D01*
X663638Y134390D01*
X667110Y137862D01*
X671645Y139741D01*
X676555Y139741D01*
X681090Y137862D01*
X684562Y134390D01*
X686441Y129855D01*
X686441Y124945D01*
X684562Y120410D01*
X681090Y116938D01*
X676555Y115059D01*
X671645Y115059D01*
G37*
%LPD*%
%LPC*%
G36*
X341445Y165059D02*
X341445Y165059D01*
X336910Y166938D01*
X333438Y170410D01*
X331559Y174945D01*
X331559Y179855D01*
X333438Y184390D01*
X336910Y187862D01*
X341445Y189741D01*
X346355Y189741D01*
X350890Y187862D01*
X354362Y184390D01*
X356241Y179855D01*
X356241Y174945D01*
X354362Y170410D01*
X350890Y166938D01*
X346355Y165059D01*
X341445Y165059D01*
G37*
%LPD*%
%LPC*%
G36*
X466445Y165059D02*
X466445Y165059D01*
X461910Y166938D01*
X458438Y170410D01*
X456559Y174945D01*
X456559Y179855D01*
X458438Y184390D01*
X461910Y187862D01*
X466445Y189741D01*
X471355Y189741D01*
X475890Y187862D01*
X479362Y184390D01*
X481241Y179855D01*
X481241Y174945D01*
X479362Y170410D01*
X475890Y166938D01*
X471355Y165059D01*
X466445Y165059D01*
G37*
%LPD*%
%LPC*%
G36*
X974445Y165059D02*
X974445Y165059D01*
X969910Y166938D01*
X966438Y170410D01*
X964559Y174945D01*
X964559Y179855D01*
X966438Y184390D01*
X969910Y187862D01*
X974445Y189741D01*
X979355Y189741D01*
X983890Y187862D01*
X987362Y184390D01*
X989241Y179855D01*
X989241Y174945D01*
X987362Y170410D01*
X983890Y166938D01*
X979355Y165059D01*
X974445Y165059D01*
G37*
%LPD*%
%LPC*%
G36*
X849445Y165059D02*
X849445Y165059D01*
X844910Y166938D01*
X841438Y170410D01*
X839559Y174945D01*
X839559Y179855D01*
X841438Y184390D01*
X844910Y187862D01*
X849445Y189741D01*
X854355Y189741D01*
X858890Y187862D01*
X862362Y184390D01*
X864241Y179855D01*
X864241Y174945D01*
X862362Y170410D01*
X858890Y166938D01*
X854355Y165059D01*
X849445Y165059D01*
G37*
%LPD*%
%LPC*%
G36*
X796645Y165059D02*
X796645Y165059D01*
X792110Y166938D01*
X788638Y170410D01*
X786759Y174945D01*
X786759Y179855D01*
X788638Y184390D01*
X792110Y187862D01*
X796645Y189741D01*
X801555Y189741D01*
X806090Y187862D01*
X809562Y184390D01*
X811441Y179855D01*
X811441Y174945D01*
X809562Y170410D01*
X806090Y166938D01*
X801555Y165059D01*
X796645Y165059D01*
G37*
%LPD*%
%LPC*%
G36*
X671645Y165059D02*
X671645Y165059D01*
X667110Y166938D01*
X663638Y170410D01*
X661759Y174945D01*
X661759Y179855D01*
X663638Y184390D01*
X667110Y187862D01*
X671645Y189741D01*
X676555Y189741D01*
X681090Y187862D01*
X684562Y184390D01*
X686441Y179855D01*
X686441Y174945D01*
X684562Y170410D01*
X681090Y166938D01*
X676555Y165059D01*
X671645Y165059D01*
G37*
%LPD*%
%LPC*%
G36*
X631545Y165059D02*
X631545Y165059D01*
X627010Y166938D01*
X623538Y170410D01*
X621659Y174945D01*
X621659Y179855D01*
X623538Y184390D01*
X627010Y187862D01*
X631545Y189741D01*
X636455Y189741D01*
X640990Y187862D01*
X644462Y184390D01*
X646341Y179855D01*
X646341Y174945D01*
X644462Y170410D01*
X640990Y166938D01*
X636455Y165059D01*
X631545Y165059D01*
G37*
%LPD*%
%LPC*%
G36*
X506545Y165059D02*
X506545Y165059D01*
X502010Y166938D01*
X498538Y170410D01*
X496659Y174945D01*
X496659Y179855D01*
X498538Y184390D01*
X502010Y187862D01*
X506545Y189741D01*
X511455Y189741D01*
X515990Y187862D01*
X519462Y184390D01*
X521341Y179855D01*
X521341Y174945D01*
X519462Y170410D01*
X515990Y166938D01*
X511455Y165059D01*
X506545Y165059D01*
G37*
%LPD*%
%LPC*%
G36*
X849445Y115059D02*
X849445Y115059D01*
X844910Y116938D01*
X841438Y120410D01*
X839559Y124945D01*
X839559Y129855D01*
X841438Y134390D01*
X844910Y137862D01*
X849445Y139741D01*
X854355Y139741D01*
X858890Y137862D01*
X862362Y134390D01*
X864241Y129855D01*
X864241Y124945D01*
X862362Y120410D01*
X858890Y116938D01*
X854355Y115059D01*
X849445Y115059D01*
G37*
%LPD*%
%LPC*%
G36*
X796645Y115059D02*
X796645Y115059D01*
X792110Y116938D01*
X788638Y120410D01*
X786759Y124945D01*
X786759Y129855D01*
X788638Y134390D01*
X792110Y137862D01*
X796645Y139741D01*
X801555Y139741D01*
X806090Y137862D01*
X809562Y134390D01*
X811441Y129855D01*
X811441Y124945D01*
X809562Y120410D01*
X806090Y116938D01*
X801555Y115059D01*
X796645Y115059D01*
G37*
%LPD*%
%LPC*%
G36*
X631545Y115059D02*
X631545Y115059D01*
X627010Y116938D01*
X623538Y120410D01*
X621659Y124945D01*
X621659Y129855D01*
X623538Y134390D01*
X627010Y137862D01*
X631545Y139741D01*
X636455Y139741D01*
X640990Y137862D01*
X644462Y134390D01*
X646341Y129855D01*
X646341Y124945D01*
X644462Y120410D01*
X640990Y116938D01*
X636455Y115059D01*
X631545Y115059D01*
G37*
%LPD*%
%LPC*%
G36*
X506545Y115059D02*
X506545Y115059D01*
X502010Y116938D01*
X498538Y120410D01*
X496659Y124945D01*
X496659Y129855D01*
X498538Y134390D01*
X502010Y137862D01*
X506545Y139741D01*
X511455Y139741D01*
X515990Y137862D01*
X519462Y134390D01*
X521341Y129855D01*
X521341Y124945D01*
X519462Y120410D01*
X515990Y116938D01*
X511455Y115059D01*
X506545Y115059D01*
G37*
%LPD*%
%LPC*%
G36*
X466445Y115059D02*
X466445Y115059D01*
X461910Y116938D01*
X458438Y120410D01*
X456559Y124945D01*
X456559Y129855D01*
X458438Y134390D01*
X461910Y137862D01*
X466445Y139741D01*
X471355Y139741D01*
X475890Y137862D01*
X479362Y134390D01*
X481241Y129855D01*
X481241Y124945D01*
X479362Y120410D01*
X475890Y116938D01*
X471355Y115059D01*
X466445Y115059D01*
G37*
%LPD*%
%LPC*%
G36*
X341445Y115059D02*
X341445Y115059D01*
X336910Y116938D01*
X333438Y120410D01*
X331559Y124945D01*
X331559Y129855D01*
X333438Y134390D01*
X336910Y137862D01*
X341445Y139741D01*
X346355Y139741D01*
X350890Y137862D01*
X354362Y134390D01*
X356241Y129855D01*
X356241Y124945D01*
X354362Y120410D01*
X350890Y116938D01*
X346355Y115059D01*
X341445Y115059D01*
G37*
%LPD*%
%LPC*%
G36*
X974445Y115059D02*
X974445Y115059D01*
X969910Y116938D01*
X966438Y120410D01*
X964559Y124945D01*
X964559Y129855D01*
X966438Y134390D01*
X969910Y137862D01*
X974445Y139741D01*
X979355Y139741D01*
X983890Y137862D01*
X987362Y134390D01*
X989241Y129855D01*
X989241Y124945D01*
X987362Y120410D01*
X983890Y116938D01*
X979355Y115059D01*
X974445Y115059D01*
G37*
%LPD*%
%LPC*%
G36*
X1165284Y140759D02*
X1165284Y140759D01*
X1161006Y142531D01*
X1157731Y145806D01*
X1155959Y150084D01*
X1155959Y154716D01*
X1157731Y158994D01*
X1161006Y162269D01*
X1165284Y164041D01*
X1169916Y164041D01*
X1174194Y162269D01*
X1177469Y158994D01*
X1179241Y154716D01*
X1179241Y150084D01*
X1177469Y145806D01*
X1174194Y142531D01*
X1169916Y140759D01*
X1165284Y140759D01*
G37*
%LPD*%
%LPC*%
G36*
X1115284Y140759D02*
X1115284Y140759D01*
X1111006Y142531D01*
X1107731Y145806D01*
X1105959Y150084D01*
X1105959Y154716D01*
X1107731Y158994D01*
X1111006Y162269D01*
X1115284Y164041D01*
X1119916Y164041D01*
X1124194Y162269D01*
X1127469Y158994D01*
X1129241Y154716D01*
X1129241Y150084D01*
X1127469Y145806D01*
X1124194Y142531D01*
X1119916Y140759D01*
X1115284Y140759D01*
G37*
%LPD*%
%LPC*%
G36*
X1065284Y140759D02*
X1065284Y140759D01*
X1061006Y142531D01*
X1057731Y145806D01*
X1055959Y150084D01*
X1055959Y154716D01*
X1057731Y158994D01*
X1061006Y162269D01*
X1065284Y164041D01*
X1069916Y164041D01*
X1074194Y162269D01*
X1077469Y158994D01*
X1079241Y154716D01*
X1079241Y150084D01*
X1077469Y145806D01*
X1074194Y142531D01*
X1069916Y140759D01*
X1065284Y140759D01*
G37*
%LPD*%
%LPC*%
G36*
X1140284Y315759D02*
X1140284Y315759D01*
X1136006Y317531D01*
X1132731Y320806D01*
X1130959Y325084D01*
X1130959Y329716D01*
X1132731Y333994D01*
X1136006Y337269D01*
X1140284Y339041D01*
X1144916Y339041D01*
X1149194Y337269D01*
X1152469Y333994D01*
X1154241Y329716D01*
X1154241Y325084D01*
X1152469Y320806D01*
X1149194Y317531D01*
X1144916Y315759D01*
X1140284Y315759D01*
G37*
%LPD*%
%LPC*%
G36*
X1090284Y314759D02*
X1090284Y314759D01*
X1086006Y316531D01*
X1082731Y319806D01*
X1080959Y324084D01*
X1080959Y328716D01*
X1082731Y332994D01*
X1086006Y336269D01*
X1090284Y338041D01*
X1094916Y338041D01*
X1099194Y336269D01*
X1102469Y332994D01*
X1104241Y328716D01*
X1104241Y324084D01*
X1102469Y319806D01*
X1099194Y316531D01*
X1094916Y314759D01*
X1090284Y314759D01*
G37*
%LPD*%
%LPC*%
G36*
X137802Y765159D02*
X137802Y765159D01*
X134296Y766612D01*
X131612Y769296D01*
X130159Y772802D01*
X130159Y776598D01*
X131612Y780104D01*
X134296Y782788D01*
X137802Y784241D01*
X141598Y784241D01*
X145104Y782788D01*
X147788Y780104D01*
X149241Y776598D01*
X149241Y772802D01*
X147788Y769296D01*
X145104Y766612D01*
X141598Y765159D01*
X137802Y765159D01*
G37*
%LPD*%
%LPC*%
G36*
X137802Y714359D02*
X137802Y714359D01*
X134296Y715812D01*
X131612Y718496D01*
X130159Y722002D01*
X130159Y725798D01*
X131612Y729304D01*
X134296Y731988D01*
X137802Y733441D01*
X141598Y733441D01*
X145104Y731988D01*
X147788Y729304D01*
X149241Y725798D01*
X149241Y722002D01*
X147788Y718496D01*
X145104Y715812D01*
X141598Y714359D01*
X137802Y714359D01*
G37*
%LPD*%
%LPC*%
G36*
X137802Y587359D02*
X137802Y587359D01*
X134296Y588812D01*
X131612Y591496D01*
X130159Y595002D01*
X130159Y598798D01*
X131612Y602304D01*
X134296Y604988D01*
X137802Y606441D01*
X141598Y606441D01*
X145104Y604988D01*
X147788Y602304D01*
X149241Y598798D01*
X149241Y595002D01*
X147788Y591496D01*
X145104Y588812D01*
X141598Y587359D01*
X137802Y587359D01*
G37*
%LPD*%
%LPC*%
G36*
X137802Y561959D02*
X137802Y561959D01*
X134296Y563412D01*
X131612Y566096D01*
X130159Y569602D01*
X130159Y573398D01*
X131612Y576904D01*
X134296Y579588D01*
X137802Y581041D01*
X141598Y581041D01*
X145104Y579588D01*
X147788Y576904D01*
X149241Y573398D01*
X149241Y569602D01*
X147788Y566096D01*
X145104Y563412D01*
X141598Y561959D01*
X137802Y561959D01*
G37*
%LPD*%
%LPC*%
G36*
X137802Y536559D02*
X137802Y536559D01*
X134296Y538012D01*
X131612Y540696D01*
X130159Y544202D01*
X130159Y547998D01*
X131612Y551504D01*
X134296Y554188D01*
X137802Y555641D01*
X141598Y555641D01*
X145104Y554188D01*
X147788Y551504D01*
X149241Y547998D01*
X149241Y544202D01*
X147788Y540696D01*
X145104Y538012D01*
X141598Y536559D01*
X137802Y536559D01*
G37*
%LPD*%
%LPC*%
G36*
X137802Y511159D02*
X137802Y511159D01*
X134296Y512612D01*
X131612Y515296D01*
X130159Y518802D01*
X130159Y522598D01*
X131612Y526104D01*
X134296Y528788D01*
X137802Y530241D01*
X141598Y530241D01*
X145104Y528788D01*
X147788Y526104D01*
X149241Y522598D01*
X149241Y518802D01*
X147788Y515296D01*
X145104Y512612D01*
X141598Y511159D01*
X137802Y511159D01*
G37*
%LPD*%
%LPC*%
G36*
X137802Y739759D02*
X137802Y739759D01*
X134296Y741212D01*
X131612Y743896D01*
X130159Y747402D01*
X130159Y751198D01*
X131612Y754704D01*
X134296Y757388D01*
X137802Y758841D01*
X141598Y758841D01*
X145104Y757388D01*
X147788Y754704D01*
X149241Y751198D01*
X149241Y747402D01*
X147788Y743896D01*
X145104Y741212D01*
X141598Y739759D01*
X137802Y739759D01*
G37*
%LPD*%
%LPC*%
G36*
X137802Y485759D02*
X137802Y485759D01*
X134296Y487212D01*
X131612Y489896D01*
X130159Y493402D01*
X130159Y497198D01*
X131612Y500704D01*
X134296Y503388D01*
X137802Y504841D01*
X141598Y504841D01*
X145104Y503388D01*
X147788Y500704D01*
X149241Y497198D01*
X149241Y493402D01*
X147788Y489896D01*
X145104Y487212D01*
X141598Y485759D01*
X137802Y485759D01*
G37*
%LPD*%
%LPC*%
G36*
X137802Y460359D02*
X137802Y460359D01*
X134296Y461812D01*
X131612Y464496D01*
X130159Y468002D01*
X130159Y471798D01*
X131612Y475304D01*
X134296Y477988D01*
X137802Y479441D01*
X141598Y479441D01*
X145104Y477988D01*
X147788Y475304D01*
X149241Y471798D01*
X149241Y468002D01*
X147788Y464496D01*
X145104Y461812D01*
X141598Y460359D01*
X137802Y460359D01*
G37*
%LPD*%
%LPC*%
G36*
X137802Y434959D02*
X137802Y434959D01*
X134296Y436412D01*
X131612Y439096D01*
X130159Y442602D01*
X130159Y446398D01*
X131612Y449904D01*
X134296Y452588D01*
X137802Y454041D01*
X141598Y454041D01*
X145104Y452588D01*
X147788Y449904D01*
X149241Y446398D01*
X149241Y442602D01*
X147788Y439096D01*
X145104Y436412D01*
X141598Y434959D01*
X137802Y434959D01*
G37*
%LPD*%
%LPC*%
G36*
X1090702Y422259D02*
X1090702Y422259D01*
X1087196Y423712D01*
X1084512Y426396D01*
X1083059Y429902D01*
X1083059Y433698D01*
X1084512Y437204D01*
X1087196Y439888D01*
X1090702Y441341D01*
X1094498Y441341D01*
X1098004Y439888D01*
X1100688Y437204D01*
X1102141Y433698D01*
X1102141Y429902D01*
X1100688Y426396D01*
X1098004Y423712D01*
X1094498Y422259D01*
X1090702Y422259D01*
G37*
%LPD*%
%LPC*%
G36*
X137802Y688959D02*
X137802Y688959D01*
X134296Y690412D01*
X131612Y693096D01*
X130159Y696602D01*
X130159Y700398D01*
X131612Y703904D01*
X134296Y706588D01*
X137802Y708041D01*
X141598Y708041D01*
X145104Y706588D01*
X147788Y703904D01*
X149241Y700398D01*
X149241Y696602D01*
X147788Y693096D01*
X145104Y690412D01*
X141598Y688959D01*
X137802Y688959D01*
G37*
%LPD*%
%LPC*%
G36*
X137802Y307959D02*
X137802Y307959D01*
X134296Y309412D01*
X131612Y312096D01*
X130159Y315602D01*
X130159Y319398D01*
X131612Y322904D01*
X134296Y325588D01*
X137802Y327041D01*
X141598Y327041D01*
X145104Y325588D01*
X147788Y322904D01*
X149241Y319398D01*
X149241Y315602D01*
X147788Y312096D01*
X145104Y309412D01*
X141598Y307959D01*
X137802Y307959D01*
G37*
%LPD*%
%LPC*%
G36*
X1140702Y422259D02*
X1140702Y422259D01*
X1137196Y423712D01*
X1134512Y426396D01*
X1133059Y429902D01*
X1133059Y433698D01*
X1134512Y437204D01*
X1137196Y439888D01*
X1140702Y441341D01*
X1144498Y441341D01*
X1148004Y439888D01*
X1150688Y437204D01*
X1152141Y433698D01*
X1152141Y429902D01*
X1150688Y426396D01*
X1148004Y423712D01*
X1144498Y422259D01*
X1140702Y422259D01*
G37*
%LPD*%
%LPC*%
G36*
X1115702Y422259D02*
X1115702Y422259D01*
X1112196Y423712D01*
X1109512Y426396D01*
X1108059Y429902D01*
X1108059Y433698D01*
X1109512Y437204D01*
X1112196Y439888D01*
X1115702Y441341D01*
X1119498Y441341D01*
X1123004Y439888D01*
X1125688Y437204D01*
X1127141Y433698D01*
X1127141Y429902D01*
X1125688Y426396D01*
X1123004Y423712D01*
X1119498Y422259D01*
X1115702Y422259D01*
G37*
%LPD*%
%LPC*%
G36*
X137802Y409559D02*
X137802Y409559D01*
X134296Y411012D01*
X131612Y413696D01*
X130159Y417202D01*
X130159Y420998D01*
X131612Y424504D01*
X134296Y427188D01*
X137802Y428641D01*
X141598Y428641D01*
X145104Y427188D01*
X147788Y424504D01*
X149241Y420998D01*
X149241Y417202D01*
X147788Y413696D01*
X145104Y411012D01*
X141598Y409559D01*
X137802Y409559D01*
G37*
%LPD*%
%LPC*%
G36*
X137802Y384159D02*
X137802Y384159D01*
X134296Y385612D01*
X131612Y388296D01*
X130159Y391802D01*
X130159Y395598D01*
X131612Y399104D01*
X134296Y401788D01*
X137802Y403241D01*
X141598Y403241D01*
X145104Y401788D01*
X147788Y399104D01*
X149241Y395598D01*
X149241Y391802D01*
X147788Y388296D01*
X145104Y385612D01*
X141598Y384159D01*
X137802Y384159D01*
G37*
%LPD*%
%LPC*%
G36*
X137802Y333359D02*
X137802Y333359D01*
X134296Y334812D01*
X131612Y337496D01*
X130159Y341002D01*
X130159Y344798D01*
X131612Y348304D01*
X134296Y350988D01*
X137802Y352441D01*
X141598Y352441D01*
X145104Y350988D01*
X147788Y348304D01*
X149241Y344798D01*
X149241Y341002D01*
X147788Y337496D01*
X145104Y334812D01*
X141598Y333359D01*
X137802Y333359D01*
G37*
%LPD*%
%LPC*%
G36*
X137802Y282559D02*
X137802Y282559D01*
X134296Y284012D01*
X131612Y286696D01*
X130159Y290202D01*
X130159Y293998D01*
X131612Y297504D01*
X134296Y300188D01*
X137802Y301641D01*
X141598Y301641D01*
X145104Y300188D01*
X147788Y297504D01*
X149241Y293998D01*
X149241Y290202D01*
X147788Y286696D01*
X145104Y284012D01*
X141598Y282559D01*
X137802Y282559D01*
G37*
%LPD*%
%LPC*%
G36*
X137802Y638159D02*
X137802Y638159D01*
X134296Y639612D01*
X131612Y642296D01*
X130159Y645802D01*
X130159Y649598D01*
X131612Y653104D01*
X134296Y655788D01*
X137802Y657241D01*
X141598Y657241D01*
X145104Y655788D01*
X147788Y653104D01*
X149241Y649598D01*
X149241Y645802D01*
X147788Y642296D01*
X145104Y639612D01*
X141598Y638159D01*
X137802Y638159D01*
G37*
%LPD*%
%LPC*%
G36*
X137802Y663559D02*
X137802Y663559D01*
X134296Y665012D01*
X131612Y667696D01*
X130159Y671202D01*
X130159Y674998D01*
X131612Y678504D01*
X134296Y681188D01*
X137802Y682641D01*
X141598Y682641D01*
X145104Y681188D01*
X147788Y678504D01*
X149241Y674998D01*
X149241Y671202D01*
X147788Y667696D01*
X145104Y665012D01*
X141598Y663559D01*
X137802Y663559D01*
G37*
%LPD*%
%LPC*%
G36*
X137802Y358759D02*
X137802Y358759D01*
X134296Y360212D01*
X131612Y362896D01*
X130159Y366402D01*
X130159Y370198D01*
X131612Y373704D01*
X134296Y376388D01*
X137802Y377841D01*
X141598Y377841D01*
X145104Y376388D01*
X147788Y373704D01*
X149241Y370198D01*
X149241Y366402D01*
X147788Y362896D01*
X145104Y360212D01*
X141598Y358759D01*
X137802Y358759D01*
G37*
%LPD*%
%LPC*%
G36*
X137802Y612759D02*
X137802Y612759D01*
X134296Y614212D01*
X131612Y616896D01*
X130159Y620402D01*
X130159Y624198D01*
X131612Y627704D01*
X134296Y630388D01*
X137802Y631841D01*
X141598Y631841D01*
X145104Y630388D01*
X147788Y627704D01*
X149241Y624198D01*
X149241Y620402D01*
X147788Y616896D01*
X145104Y614212D01*
X141598Y612759D01*
X137802Y612759D01*
G37*
%LPD*%
%LPC*%
G36*
X305935Y701595D02*
X305935Y701595D01*
X303338Y702671D01*
X301351Y704658D01*
X300275Y707255D01*
X300275Y710065D01*
X301351Y712662D01*
X303338Y714649D01*
X305935Y715725D01*
X308745Y715725D01*
X311342Y714649D01*
X313329Y712662D01*
X314405Y710065D01*
X314405Y707255D01*
X313329Y704658D01*
X311342Y702671D01*
X308745Y701595D01*
X305935Y701595D01*
G37*
%LPD*%
%LPC*%
G36*
X280535Y701595D02*
X280535Y701595D01*
X277938Y702671D01*
X275951Y704658D01*
X274875Y707255D01*
X274875Y710065D01*
X275951Y712662D01*
X277938Y714649D01*
X280535Y715725D01*
X283345Y715725D01*
X285942Y714649D01*
X287929Y712662D01*
X289005Y710065D01*
X289005Y707255D01*
X287929Y704658D01*
X285942Y702671D01*
X283345Y701595D01*
X280535Y701595D01*
G37*
%LPD*%
%LPC*%
G36*
X290695Y234235D02*
X290695Y234235D01*
X288098Y235311D01*
X286111Y237298D01*
X285035Y239895D01*
X285035Y242705D01*
X286111Y245302D01*
X288098Y247289D01*
X290695Y248365D01*
X293505Y248365D01*
X296102Y247289D01*
X298089Y245302D01*
X299165Y242705D01*
X299165Y239895D01*
X298089Y237298D01*
X296102Y235311D01*
X293505Y234235D01*
X290695Y234235D01*
G37*
%LPD*%
%LPC*%
G36*
X290695Y208835D02*
X290695Y208835D01*
X288098Y209911D01*
X286111Y211898D01*
X285035Y214495D01*
X285035Y217305D01*
X286111Y219902D01*
X288098Y221889D01*
X290695Y222965D01*
X293505Y222965D01*
X296102Y221889D01*
X298089Y219902D01*
X299165Y217305D01*
X299165Y214495D01*
X298089Y211898D01*
X296102Y209911D01*
X293505Y208835D01*
X290695Y208835D01*
G37*
%LPD*%
%LPC*%
G36*
X255135Y701595D02*
X255135Y701595D01*
X252538Y702671D01*
X250551Y704658D01*
X249475Y707255D01*
X249475Y710065D01*
X250551Y712662D01*
X252538Y714649D01*
X255135Y715725D01*
X257945Y715725D01*
X260542Y714649D01*
X262529Y712662D01*
X263605Y710065D01*
X263605Y707255D01*
X262529Y704658D01*
X260542Y702671D01*
X257945Y701595D01*
X255135Y701595D01*
G37*
%LPD*%
%LPC*%
G36*
X661535Y681275D02*
X661535Y681275D01*
X658938Y682351D01*
X656951Y684338D01*
X655875Y686935D01*
X655875Y689745D01*
X656951Y692342D01*
X658938Y694329D01*
X661535Y695405D01*
X664345Y695405D01*
X666942Y694329D01*
X668929Y692342D01*
X670005Y689745D01*
X670005Y686935D01*
X668929Y684338D01*
X666942Y682351D01*
X664345Y681275D01*
X661535Y681275D01*
G37*
%LPD*%
%LPC*%
G36*
X509135Y681275D02*
X509135Y681275D01*
X506538Y682351D01*
X504551Y684338D01*
X503475Y686935D01*
X503475Y689745D01*
X504551Y692342D01*
X506538Y694329D01*
X509135Y695405D01*
X511945Y695405D01*
X514542Y694329D01*
X516529Y692342D01*
X517605Y689745D01*
X517605Y686935D01*
X516529Y684338D01*
X514542Y682351D01*
X511945Y681275D01*
X509135Y681275D01*
G37*
%LPD*%
%LPC*%
G36*
X686935Y681275D02*
X686935Y681275D01*
X684338Y682351D01*
X682351Y684338D01*
X681275Y686935D01*
X681275Y689745D01*
X682351Y692342D01*
X684338Y694329D01*
X686935Y695405D01*
X689745Y695405D01*
X692342Y694329D01*
X694329Y692342D01*
X695405Y689745D01*
X695405Y686935D01*
X694329Y684338D01*
X692342Y682351D01*
X689745Y681275D01*
X686935Y681275D01*
G37*
%LPD*%
%LPC*%
G36*
X458335Y447595D02*
X458335Y447595D01*
X455738Y448671D01*
X453751Y450658D01*
X452675Y453255D01*
X452675Y456065D01*
X453751Y458662D01*
X455738Y460649D01*
X458335Y461725D01*
X461145Y461725D01*
X463742Y460649D01*
X465729Y458662D01*
X466805Y456065D01*
X466805Y453255D01*
X465729Y450658D01*
X463742Y448671D01*
X461145Y447595D01*
X458335Y447595D01*
G37*
%LPD*%
%LPC*%
G36*
X382135Y447595D02*
X382135Y447595D01*
X379538Y448671D01*
X377551Y450658D01*
X376475Y453255D01*
X376475Y456065D01*
X377551Y458662D01*
X379538Y460649D01*
X382135Y461725D01*
X384945Y461725D01*
X387542Y460649D01*
X389529Y458662D01*
X390605Y456065D01*
X390605Y453255D01*
X389529Y450658D01*
X387542Y448671D01*
X384945Y447595D01*
X382135Y447595D01*
G37*
%LPD*%
%LPC*%
G36*
X331335Y447595D02*
X331335Y447595D01*
X328738Y448671D01*
X326751Y450658D01*
X325675Y453255D01*
X325675Y456065D01*
X326751Y458662D01*
X328738Y460649D01*
X331335Y461725D01*
X334145Y461725D01*
X336742Y460649D01*
X338729Y458662D01*
X339805Y456065D01*
X339805Y453255D01*
X338729Y450658D01*
X336742Y448671D01*
X334145Y447595D01*
X331335Y447595D01*
G37*
%LPD*%
%LPC*%
G36*
X305935Y447595D02*
X305935Y447595D01*
X303338Y448671D01*
X301351Y450658D01*
X300275Y453255D01*
X300275Y456065D01*
X301351Y458662D01*
X303338Y460649D01*
X305935Y461725D01*
X308745Y461725D01*
X311342Y460649D01*
X313329Y458662D01*
X314405Y456065D01*
X314405Y453255D01*
X313329Y450658D01*
X311342Y448671D01*
X308745Y447595D01*
X305935Y447595D01*
G37*
%LPD*%
%LPC*%
G36*
X382135Y427275D02*
X382135Y427275D01*
X379538Y428351D01*
X377551Y430338D01*
X376475Y432935D01*
X376475Y435745D01*
X377551Y438342D01*
X379538Y440329D01*
X382135Y441405D01*
X384945Y441405D01*
X387542Y440329D01*
X389529Y438342D01*
X390605Y435745D01*
X390605Y432935D01*
X389529Y430338D01*
X387542Y428351D01*
X384945Y427275D01*
X382135Y427275D01*
G37*
%LPD*%
%LPC*%
G36*
X356735Y427275D02*
X356735Y427275D01*
X354138Y428351D01*
X352151Y430338D01*
X351075Y432935D01*
X351075Y435745D01*
X352151Y438342D01*
X354138Y440329D01*
X356735Y441405D01*
X359545Y441405D01*
X362142Y440329D01*
X364129Y438342D01*
X365205Y435745D01*
X365205Y432935D01*
X364129Y430338D01*
X362142Y428351D01*
X359545Y427275D01*
X356735Y427275D01*
G37*
%LPD*%
%LPC*%
G36*
X483735Y427275D02*
X483735Y427275D01*
X481138Y428351D01*
X479151Y430338D01*
X478075Y432935D01*
X478075Y435745D01*
X479151Y438342D01*
X481138Y440329D01*
X483735Y441405D01*
X486545Y441405D01*
X489142Y440329D01*
X491129Y438342D01*
X492205Y435745D01*
X492205Y432935D01*
X491129Y430338D01*
X489142Y428351D01*
X486545Y427275D01*
X483735Y427275D01*
G37*
%LPD*%
%LPC*%
G36*
X356735Y447595D02*
X356735Y447595D01*
X354138Y448671D01*
X352151Y450658D01*
X351075Y453255D01*
X351075Y456065D01*
X352151Y458662D01*
X354138Y460649D01*
X356735Y461725D01*
X359545Y461725D01*
X362142Y460649D01*
X364129Y458662D01*
X365205Y456065D01*
X365205Y453255D01*
X364129Y450658D01*
X362142Y448671D01*
X359545Y447595D01*
X356735Y447595D01*
G37*
%LPD*%
%LPC*%
G36*
X458335Y427275D02*
X458335Y427275D01*
X455738Y428351D01*
X453751Y430338D01*
X452675Y432935D01*
X452675Y435745D01*
X453751Y438342D01*
X455738Y440329D01*
X458335Y441405D01*
X461145Y441405D01*
X463742Y440329D01*
X465729Y438342D01*
X466805Y435745D01*
X466805Y432935D01*
X465729Y430338D01*
X463742Y428351D01*
X461145Y427275D01*
X458335Y427275D01*
G37*
%LPD*%
%LPC*%
G36*
X407535Y427275D02*
X407535Y427275D01*
X404938Y428351D01*
X402951Y430338D01*
X401875Y432935D01*
X401875Y435745D01*
X402951Y438342D01*
X404938Y440329D01*
X407535Y441405D01*
X410345Y441405D01*
X412942Y440329D01*
X414929Y438342D01*
X416005Y435745D01*
X416005Y432935D01*
X414929Y430338D01*
X412942Y428351D01*
X410345Y427275D01*
X407535Y427275D01*
G37*
%LPD*%
%LPC*%
G36*
X356735Y701595D02*
X356735Y701595D01*
X354138Y702671D01*
X352151Y704658D01*
X351075Y707255D01*
X351075Y710065D01*
X352151Y712662D01*
X354138Y714649D01*
X356735Y715725D01*
X359545Y715725D01*
X362142Y714649D01*
X364129Y712662D01*
X365205Y710065D01*
X365205Y707255D01*
X364129Y704658D01*
X362142Y702671D01*
X359545Y701595D01*
X356735Y701595D01*
G37*
%LPD*%
%LPC*%
G36*
X534535Y701595D02*
X534535Y701595D01*
X531938Y702671D01*
X529951Y704658D01*
X528875Y707255D01*
X528875Y710065D01*
X529951Y712662D01*
X531938Y714649D01*
X534535Y715725D01*
X537345Y715725D01*
X539942Y714649D01*
X541929Y712662D01*
X543005Y710065D01*
X543005Y707255D01*
X541929Y704658D01*
X539942Y702671D01*
X537345Y701595D01*
X534535Y701595D01*
G37*
%LPD*%
%LPC*%
G36*
X509135Y701595D02*
X509135Y701595D01*
X506538Y702671D01*
X504551Y704658D01*
X503475Y707255D01*
X503475Y710065D01*
X504551Y712662D01*
X506538Y714649D01*
X509135Y715725D01*
X511945Y715725D01*
X514542Y714649D01*
X516529Y712662D01*
X517605Y710065D01*
X517605Y707255D01*
X516529Y704658D01*
X514542Y702671D01*
X511945Y701595D01*
X509135Y701595D01*
G37*
%LPD*%
%LPC*%
G36*
X483735Y701595D02*
X483735Y701595D01*
X481138Y702671D01*
X479151Y704658D01*
X478075Y707255D01*
X478075Y710065D01*
X479151Y712662D01*
X481138Y714649D01*
X483735Y715725D01*
X486545Y715725D01*
X489142Y714649D01*
X491129Y712662D01*
X492205Y710065D01*
X492205Y707255D01*
X491129Y704658D01*
X489142Y702671D01*
X486545Y701595D01*
X483735Y701595D01*
G37*
%LPD*%
%LPC*%
G36*
X458335Y701595D02*
X458335Y701595D01*
X455738Y702671D01*
X453751Y704658D01*
X452675Y707255D01*
X452675Y710065D01*
X453751Y712662D01*
X455738Y714649D01*
X458335Y715725D01*
X461145Y715725D01*
X463742Y714649D01*
X465729Y712662D01*
X466805Y710065D01*
X466805Y707255D01*
X465729Y704658D01*
X463742Y702671D01*
X461145Y701595D01*
X458335Y701595D01*
G37*
%LPD*%
%LPC*%
G36*
X331335Y701595D02*
X331335Y701595D01*
X328738Y702671D01*
X326751Y704658D01*
X325675Y707255D01*
X325675Y710065D01*
X326751Y712662D01*
X328738Y714649D01*
X331335Y715725D01*
X334145Y715725D01*
X336742Y714649D01*
X338729Y712662D01*
X339805Y710065D01*
X339805Y707255D01*
X338729Y704658D01*
X336742Y702671D01*
X334145Y701595D01*
X331335Y701595D01*
G37*
%LPD*%
%LPC*%
G36*
X290695Y259635D02*
X290695Y259635D01*
X288098Y260711D01*
X286111Y262698D01*
X285035Y265295D01*
X285035Y268105D01*
X286111Y270702D01*
X288098Y272689D01*
X290695Y273765D01*
X293505Y273765D01*
X296102Y272689D01*
X298089Y270702D01*
X299165Y268105D01*
X299165Y265295D01*
X298089Y262698D01*
X296102Y260711D01*
X293505Y259635D01*
X290695Y259635D01*
G37*
%LPD*%
%LPC*%
G36*
X94093Y108485D02*
X94093Y108485D01*
X91956Y109370D01*
X90320Y111006D01*
X89435Y113143D01*
X89435Y115457D01*
X90320Y117594D01*
X91956Y119230D01*
X94093Y120115D01*
X96407Y120115D01*
X98544Y119230D01*
X100180Y117594D01*
X101065Y115457D01*
X101065Y113143D01*
X100180Y111006D01*
X98544Y109370D01*
X96407Y108485D01*
X94093Y108485D01*
G37*
%LPD*%
%LPC*%
G36*
X277623Y325909D02*
X277623Y325909D01*
X275109Y328423D01*
X275109Y331977D01*
X277623Y334491D01*
X281177Y334491D01*
X283691Y331977D01*
X283691Y328423D01*
X281177Y325909D01*
X277623Y325909D01*
G37*
%LPD*%
%LPC*%
G36*
X125223Y325909D02*
X125223Y325909D01*
X122709Y328423D01*
X122709Y331977D01*
X125223Y334491D01*
X128777Y334491D01*
X131291Y331977D01*
X131291Y328423D01*
X128777Y325909D01*
X125223Y325909D01*
G37*
%LPD*%
%LPC*%
G36*
X277623Y122709D02*
X277623Y122709D01*
X275109Y125223D01*
X275109Y128777D01*
X277623Y131291D01*
X281177Y131291D01*
X283691Y128777D01*
X283691Y125223D01*
X281177Y122709D01*
X277623Y122709D01*
G37*
%LPD*%
%LPC*%
G36*
X125223Y122709D02*
X125223Y122709D01*
X122709Y125223D01*
X122709Y128777D01*
X125223Y131291D01*
X128777Y131291D01*
X131291Y128777D01*
X131291Y125223D01*
X128777Y122709D01*
X125223Y122709D01*
G37*
%LPD*%
%LPC*%
G36*
X293599Y191999D02*
X293599Y191999D01*
X293599Y197405D01*
X294161Y197293D01*
X295446Y196761D01*
X296603Y195988D01*
X297588Y195003D01*
X298361Y193846D01*
X298893Y192561D01*
X299005Y191999D01*
X293599Y191999D01*
G37*
%LPD*%
%LPC*%
G36*
X537439Y689839D02*
X537439Y689839D01*
X537439Y695245D01*
X538001Y695133D01*
X539286Y694601D01*
X540443Y693828D01*
X541428Y692843D01*
X542201Y691686D01*
X542733Y690401D01*
X542845Y689839D01*
X537439Y689839D01*
G37*
%LPD*%
%LPC*%
G36*
X334239Y435839D02*
X334239Y435839D01*
X334239Y441245D01*
X334801Y441133D01*
X336086Y440601D01*
X337243Y439828D01*
X338228Y438843D01*
X339001Y437686D01*
X339533Y436401D01*
X339645Y435839D01*
X334239Y435839D01*
G37*
%LPD*%
%LPC*%
G36*
X334239Y432841D02*
X334239Y432841D01*
X339645Y432841D01*
X339533Y432279D01*
X339001Y430994D01*
X338228Y429837D01*
X337243Y428852D01*
X336086Y428079D01*
X334801Y427547D01*
X334239Y427435D01*
X334239Y432841D01*
G37*
%LPD*%
%LPC*%
G36*
X285195Y191999D02*
X285195Y191999D01*
X285307Y192561D01*
X285839Y193846D01*
X286612Y195003D01*
X287597Y195988D01*
X288754Y196761D01*
X290039Y197293D01*
X290601Y197405D01*
X290601Y191999D01*
X285195Y191999D01*
G37*
%LPD*%
%LPC*%
G36*
X325835Y435839D02*
X325835Y435839D01*
X325947Y436401D01*
X326479Y437686D01*
X327252Y438843D01*
X328237Y439828D01*
X329394Y440601D01*
X330679Y441133D01*
X331241Y441245D01*
X331241Y435839D01*
X325835Y435839D01*
G37*
%LPD*%
%LPC*%
G36*
X537439Y686841D02*
X537439Y686841D01*
X542845Y686841D01*
X542733Y686279D01*
X542201Y684994D01*
X541428Y683837D01*
X540443Y682852D01*
X539286Y682079D01*
X538001Y681547D01*
X537439Y681435D01*
X537439Y686841D01*
G37*
%LPD*%
%LPC*%
G36*
X529035Y689839D02*
X529035Y689839D01*
X529147Y690401D01*
X529679Y691686D01*
X530452Y692843D01*
X531437Y693828D01*
X532594Y694601D01*
X533879Y695133D01*
X534441Y695245D01*
X534441Y689839D01*
X529035Y689839D01*
G37*
%LPD*%
%LPC*%
G36*
X293599Y189001D02*
X293599Y189001D01*
X299005Y189001D01*
X298893Y188439D01*
X298361Y187154D01*
X297588Y185997D01*
X296603Y185012D01*
X295446Y184239D01*
X294161Y183707D01*
X293599Y183595D01*
X293599Y189001D01*
G37*
%LPD*%
%LPC*%
G36*
X290039Y183707D02*
X290039Y183707D01*
X288754Y184239D01*
X287597Y185012D01*
X286612Y185997D01*
X285839Y187154D01*
X285307Y188439D01*
X285195Y189001D01*
X290601Y189001D01*
X290601Y183595D01*
X290039Y183707D01*
G37*
%LPD*%
%LPC*%
G36*
X330679Y427547D02*
X330679Y427547D01*
X329394Y428079D01*
X328237Y428852D01*
X327252Y429837D01*
X326479Y430994D01*
X325947Y432279D01*
X325835Y432841D01*
X331241Y432841D01*
X331241Y427435D01*
X330679Y427547D01*
G37*
%LPD*%
%LPC*%
G36*
X533879Y681547D02*
X533879Y681547D01*
X532594Y682079D01*
X531437Y682852D01*
X530452Y683837D01*
X529679Y684994D01*
X529147Y686279D01*
X529035Y686841D01*
X534441Y686841D01*
X534441Y681435D01*
X533879Y681547D01*
G37*
%LPD*%
D10*
X468900Y177400D03*
X468900Y127400D03*
X343900Y127400D03*
X343900Y177400D03*
D11*
X1092600Y431800D03*
X1117600Y431800D03*
X1142600Y431800D03*
D12*
X383540Y454660D03*
X358140Y454660D03*
X332740Y454660D03*
X307340Y454660D03*
X408940Y434340D03*
X383540Y434340D03*
X358140Y434340D03*
X332740Y434340D03*
X459740Y454660D03*
X459740Y434340D03*
X281940Y708660D03*
X307340Y708660D03*
X332740Y708660D03*
X358140Y708660D03*
X459740Y708660D03*
X485140Y708660D03*
X510540Y708660D03*
X535940Y708660D03*
X535940Y688340D03*
X510540Y688340D03*
X485140Y434340D03*
X256540Y708660D03*
X662940Y688340D03*
X688340Y688340D03*
D13*
X1117600Y152400D03*
X1167600Y152400D03*
X1067600Y152400D03*
D14*
X1033600Y257400D03*
X1201600Y257400D03*
D13*
X1092600Y326400D03*
X1142600Y327400D03*
D10*
X634000Y177400D03*
X634000Y127400D03*
X509000Y127400D03*
X509000Y177400D03*
X799100Y177400D03*
X799100Y127400D03*
X674100Y127400D03*
X674100Y177400D03*
X976900Y177400D03*
X976900Y127400D03*
X851900Y127400D03*
X851900Y177400D03*
D11*
X139700Y774700D03*
X139700Y749300D03*
X139700Y723900D03*
X139700Y698500D03*
X139700Y673100D03*
X139700Y647700D03*
X139700Y622300D03*
X139700Y596900D03*
X139700Y571500D03*
X139700Y546100D03*
X139700Y520700D03*
X139700Y495300D03*
X139700Y469900D03*
X139700Y444500D03*
X139700Y419100D03*
X139700Y393700D03*
X139700Y368300D03*
X139700Y342900D03*
X139700Y317500D03*
X139700Y292100D03*
D15*
X139700Y819150D03*
X139700Y247650D03*
X901700Y819150D03*
X901700Y247650D03*
D16*
X50800Y838200D03*
X1219200Y50800D03*
X1219200Y838200D03*
X50800Y50800D03*
D12*
X292100Y190500D03*
X292100Y215900D03*
X292100Y241300D03*
X292100Y266700D03*
D17*
X95250Y114300D03*
X342900Y361950D03*
X508000Y247650D03*
X673100Y247650D03*
X850900Y247650D03*
M02*
