G04 EAGLE Gerber RS-274X export*
G75*
%MOMM*%
%FSLAX34Y34*%
%LPD*%
%INSoldermask Top*%
%IPPOS*%
%AMOC8*
5,1,8,0,0,1.08239X$1,22.5*%
G01*
%ADD10C,2.112400*%
%ADD11C,1.552400*%
%ADD12R,1.057200X1.057200*%
%ADD13C,1.972400*%
%ADD14R,3.232400X3.232400*%
%ADD15R,0.660400X0.762000*%
%ADD16R,1.828800X1.828800*%
%ADD17C,1.828800*%
%ADD18C,4.168400*%
%ADD19C,4.597400*%
%ADD20C,0.502400*%
%ADD21C,0.609600*%
%ADD22C,1.168400*%


D10*
X468900Y177400D03*
X468900Y127400D03*
X343900Y127400D03*
X343900Y177400D03*
D11*
X1092600Y431800D03*
X1117600Y431800D03*
X1142600Y431800D03*
D12*
X383540Y454660D03*
X358140Y454660D03*
X332740Y454660D03*
X307340Y454660D03*
X408940Y434340D03*
X383540Y434340D03*
X358140Y434340D03*
X332740Y434340D03*
X459740Y454660D03*
X459740Y434340D03*
X281940Y708660D03*
X307340Y708660D03*
X332740Y708660D03*
X358140Y708660D03*
X459740Y708660D03*
X485140Y708660D03*
X510540Y708660D03*
X535940Y708660D03*
X535940Y688340D03*
X510540Y688340D03*
X485140Y434340D03*
X256540Y708660D03*
X662940Y688340D03*
X688340Y688340D03*
D13*
X1117600Y152400D03*
X1167600Y152400D03*
X1067600Y152400D03*
D14*
X1033600Y257400D03*
X1201600Y257400D03*
D13*
X1092600Y326400D03*
X1142600Y327400D03*
D15*
X342900Y348488D03*
X342900Y337312D03*
D10*
X634000Y177400D03*
X634000Y127400D03*
X509000Y127400D03*
X509000Y177400D03*
D15*
X508000Y234188D03*
X508000Y223012D03*
D10*
X799100Y177400D03*
X799100Y127400D03*
X674100Y127400D03*
X674100Y177400D03*
D15*
X673100Y234188D03*
X673100Y223012D03*
D10*
X976900Y177400D03*
X976900Y127400D03*
X851900Y127400D03*
X851900Y177400D03*
D15*
X850900Y234188D03*
X850900Y223012D03*
D16*
X139700Y774700D03*
D17*
X139700Y749300D03*
X139700Y723900D03*
X139700Y698500D03*
X139700Y673100D03*
X139700Y647700D03*
X139700Y622300D03*
X139700Y596900D03*
X139700Y571500D03*
X139700Y546100D03*
X139700Y520700D03*
X139700Y495300D03*
X139700Y469900D03*
X139700Y444500D03*
X139700Y419100D03*
X139700Y393700D03*
X139700Y368300D03*
X139700Y342900D03*
X139700Y317500D03*
X139700Y292100D03*
D18*
X139700Y819150D03*
X139700Y247650D03*
X901700Y819150D03*
X901700Y247650D03*
D19*
X50800Y838200D03*
X1219200Y50800D03*
X1219200Y838200D03*
X50800Y50800D03*
D12*
X292100Y190500D03*
X292100Y215900D03*
X292100Y241300D03*
X292100Y266700D03*
D20*
X127000Y127000D03*
X279400Y127000D03*
X279400Y330200D03*
X127000Y330200D03*
D21*
X68580Y190500D02*
X68582Y190687D01*
X68589Y190874D01*
X68601Y191061D01*
X68617Y191247D01*
X68637Y191433D01*
X68662Y191618D01*
X68692Y191803D01*
X68726Y191987D01*
X68765Y192170D01*
X68808Y192352D01*
X68856Y192532D01*
X68908Y192712D01*
X68965Y192890D01*
X69025Y193067D01*
X69091Y193242D01*
X69160Y193416D01*
X69234Y193588D01*
X69312Y193758D01*
X69394Y193926D01*
X69480Y194092D01*
X69570Y194256D01*
X69664Y194417D01*
X69762Y194577D01*
X69864Y194733D01*
X69970Y194888D01*
X70080Y195039D01*
X70193Y195188D01*
X70310Y195334D01*
X70430Y195477D01*
X70554Y195617D01*
X70681Y195754D01*
X70812Y195888D01*
X70946Y196019D01*
X71083Y196146D01*
X71223Y196270D01*
X71366Y196390D01*
X71512Y196507D01*
X71661Y196620D01*
X71812Y196730D01*
X71967Y196836D01*
X72123Y196938D01*
X72283Y197036D01*
X72444Y197130D01*
X72608Y197220D01*
X72774Y197306D01*
X72942Y197388D01*
X73112Y197466D01*
X73284Y197540D01*
X73458Y197609D01*
X73633Y197675D01*
X73810Y197735D01*
X73988Y197792D01*
X74168Y197844D01*
X74348Y197892D01*
X74530Y197935D01*
X74713Y197974D01*
X74897Y198008D01*
X75082Y198038D01*
X75267Y198063D01*
X75453Y198083D01*
X75639Y198099D01*
X75826Y198111D01*
X76013Y198118D01*
X76200Y198120D01*
X76387Y198118D01*
X76574Y198111D01*
X76761Y198099D01*
X76947Y198083D01*
X77133Y198063D01*
X77318Y198038D01*
X77503Y198008D01*
X77687Y197974D01*
X77870Y197935D01*
X78052Y197892D01*
X78232Y197844D01*
X78412Y197792D01*
X78590Y197735D01*
X78767Y197675D01*
X78942Y197609D01*
X79116Y197540D01*
X79288Y197466D01*
X79458Y197388D01*
X79626Y197306D01*
X79792Y197220D01*
X79956Y197130D01*
X80117Y197036D01*
X80277Y196938D01*
X80433Y196836D01*
X80588Y196730D01*
X80739Y196620D01*
X80888Y196507D01*
X81034Y196390D01*
X81177Y196270D01*
X81317Y196146D01*
X81454Y196019D01*
X81588Y195888D01*
X81719Y195754D01*
X81846Y195617D01*
X81970Y195477D01*
X82090Y195334D01*
X82207Y195188D01*
X82320Y195039D01*
X82430Y194888D01*
X82536Y194733D01*
X82638Y194577D01*
X82736Y194417D01*
X82830Y194256D01*
X82920Y194092D01*
X83006Y193926D01*
X83088Y193758D01*
X83166Y193588D01*
X83240Y193416D01*
X83309Y193242D01*
X83375Y193067D01*
X83435Y192890D01*
X83492Y192712D01*
X83544Y192532D01*
X83592Y192352D01*
X83635Y192170D01*
X83674Y191987D01*
X83708Y191803D01*
X83738Y191618D01*
X83763Y191433D01*
X83783Y191247D01*
X83799Y191061D01*
X83811Y190874D01*
X83818Y190687D01*
X83820Y190500D01*
X83818Y190313D01*
X83811Y190126D01*
X83799Y189939D01*
X83783Y189753D01*
X83763Y189567D01*
X83738Y189382D01*
X83708Y189197D01*
X83674Y189013D01*
X83635Y188830D01*
X83592Y188648D01*
X83544Y188468D01*
X83492Y188288D01*
X83435Y188110D01*
X83375Y187933D01*
X83309Y187758D01*
X83240Y187584D01*
X83166Y187412D01*
X83088Y187242D01*
X83006Y187074D01*
X82920Y186908D01*
X82830Y186744D01*
X82736Y186583D01*
X82638Y186423D01*
X82536Y186267D01*
X82430Y186112D01*
X82320Y185961D01*
X82207Y185812D01*
X82090Y185666D01*
X81970Y185523D01*
X81846Y185383D01*
X81719Y185246D01*
X81588Y185112D01*
X81454Y184981D01*
X81317Y184854D01*
X81177Y184730D01*
X81034Y184610D01*
X80888Y184493D01*
X80739Y184380D01*
X80588Y184270D01*
X80433Y184164D01*
X80277Y184062D01*
X80117Y183964D01*
X79956Y183870D01*
X79792Y183780D01*
X79626Y183694D01*
X79458Y183612D01*
X79288Y183534D01*
X79116Y183460D01*
X78942Y183391D01*
X78767Y183325D01*
X78590Y183265D01*
X78412Y183208D01*
X78232Y183156D01*
X78052Y183108D01*
X77870Y183065D01*
X77687Y183026D01*
X77503Y182992D01*
X77318Y182962D01*
X77133Y182937D01*
X76947Y182917D01*
X76761Y182901D01*
X76574Y182889D01*
X76387Y182882D01*
X76200Y182880D01*
X76013Y182882D01*
X75826Y182889D01*
X75639Y182901D01*
X75453Y182917D01*
X75267Y182937D01*
X75082Y182962D01*
X74897Y182992D01*
X74713Y183026D01*
X74530Y183065D01*
X74348Y183108D01*
X74168Y183156D01*
X73988Y183208D01*
X73810Y183265D01*
X73633Y183325D01*
X73458Y183391D01*
X73284Y183460D01*
X73112Y183534D01*
X72942Y183612D01*
X72774Y183694D01*
X72608Y183780D01*
X72444Y183870D01*
X72283Y183964D01*
X72123Y184062D01*
X71967Y184164D01*
X71812Y184270D01*
X71661Y184380D01*
X71512Y184493D01*
X71366Y184610D01*
X71223Y184730D01*
X71083Y184854D01*
X70946Y184981D01*
X70812Y185112D01*
X70681Y185246D01*
X70554Y185383D01*
X70430Y185523D01*
X70310Y185666D01*
X70193Y185812D01*
X70080Y185961D01*
X69970Y186112D01*
X69864Y186267D01*
X69762Y186423D01*
X69664Y186583D01*
X69570Y186744D01*
X69480Y186908D01*
X69394Y187074D01*
X69312Y187242D01*
X69234Y187412D01*
X69160Y187584D01*
X69091Y187758D01*
X69025Y187933D01*
X68965Y188110D01*
X68908Y188288D01*
X68856Y188468D01*
X68808Y188648D01*
X68765Y188830D01*
X68726Y189013D01*
X68692Y189197D01*
X68662Y189382D01*
X68637Y189567D01*
X68617Y189753D01*
X68601Y189939D01*
X68589Y190126D01*
X68582Y190313D01*
X68580Y190500D01*
D22*
X76200Y190500D03*
D21*
X1109980Y812800D02*
X1109982Y812987D01*
X1109989Y813174D01*
X1110001Y813361D01*
X1110017Y813547D01*
X1110037Y813733D01*
X1110062Y813918D01*
X1110092Y814103D01*
X1110126Y814287D01*
X1110165Y814470D01*
X1110208Y814652D01*
X1110256Y814832D01*
X1110308Y815012D01*
X1110365Y815190D01*
X1110425Y815367D01*
X1110491Y815542D01*
X1110560Y815716D01*
X1110634Y815888D01*
X1110712Y816058D01*
X1110794Y816226D01*
X1110880Y816392D01*
X1110970Y816556D01*
X1111064Y816717D01*
X1111162Y816877D01*
X1111264Y817033D01*
X1111370Y817188D01*
X1111480Y817339D01*
X1111593Y817488D01*
X1111710Y817634D01*
X1111830Y817777D01*
X1111954Y817917D01*
X1112081Y818054D01*
X1112212Y818188D01*
X1112346Y818319D01*
X1112483Y818446D01*
X1112623Y818570D01*
X1112766Y818690D01*
X1112912Y818807D01*
X1113061Y818920D01*
X1113212Y819030D01*
X1113367Y819136D01*
X1113523Y819238D01*
X1113683Y819336D01*
X1113844Y819430D01*
X1114008Y819520D01*
X1114174Y819606D01*
X1114342Y819688D01*
X1114512Y819766D01*
X1114684Y819840D01*
X1114858Y819909D01*
X1115033Y819975D01*
X1115210Y820035D01*
X1115388Y820092D01*
X1115568Y820144D01*
X1115748Y820192D01*
X1115930Y820235D01*
X1116113Y820274D01*
X1116297Y820308D01*
X1116482Y820338D01*
X1116667Y820363D01*
X1116853Y820383D01*
X1117039Y820399D01*
X1117226Y820411D01*
X1117413Y820418D01*
X1117600Y820420D01*
X1117787Y820418D01*
X1117974Y820411D01*
X1118161Y820399D01*
X1118347Y820383D01*
X1118533Y820363D01*
X1118718Y820338D01*
X1118903Y820308D01*
X1119087Y820274D01*
X1119270Y820235D01*
X1119452Y820192D01*
X1119632Y820144D01*
X1119812Y820092D01*
X1119990Y820035D01*
X1120167Y819975D01*
X1120342Y819909D01*
X1120516Y819840D01*
X1120688Y819766D01*
X1120858Y819688D01*
X1121026Y819606D01*
X1121192Y819520D01*
X1121356Y819430D01*
X1121517Y819336D01*
X1121677Y819238D01*
X1121833Y819136D01*
X1121988Y819030D01*
X1122139Y818920D01*
X1122288Y818807D01*
X1122434Y818690D01*
X1122577Y818570D01*
X1122717Y818446D01*
X1122854Y818319D01*
X1122988Y818188D01*
X1123119Y818054D01*
X1123246Y817917D01*
X1123370Y817777D01*
X1123490Y817634D01*
X1123607Y817488D01*
X1123720Y817339D01*
X1123830Y817188D01*
X1123936Y817033D01*
X1124038Y816877D01*
X1124136Y816717D01*
X1124230Y816556D01*
X1124320Y816392D01*
X1124406Y816226D01*
X1124488Y816058D01*
X1124566Y815888D01*
X1124640Y815716D01*
X1124709Y815542D01*
X1124775Y815367D01*
X1124835Y815190D01*
X1124892Y815012D01*
X1124944Y814832D01*
X1124992Y814652D01*
X1125035Y814470D01*
X1125074Y814287D01*
X1125108Y814103D01*
X1125138Y813918D01*
X1125163Y813733D01*
X1125183Y813547D01*
X1125199Y813361D01*
X1125211Y813174D01*
X1125218Y812987D01*
X1125220Y812800D01*
X1125218Y812613D01*
X1125211Y812426D01*
X1125199Y812239D01*
X1125183Y812053D01*
X1125163Y811867D01*
X1125138Y811682D01*
X1125108Y811497D01*
X1125074Y811313D01*
X1125035Y811130D01*
X1124992Y810948D01*
X1124944Y810768D01*
X1124892Y810588D01*
X1124835Y810410D01*
X1124775Y810233D01*
X1124709Y810058D01*
X1124640Y809884D01*
X1124566Y809712D01*
X1124488Y809542D01*
X1124406Y809374D01*
X1124320Y809208D01*
X1124230Y809044D01*
X1124136Y808883D01*
X1124038Y808723D01*
X1123936Y808567D01*
X1123830Y808412D01*
X1123720Y808261D01*
X1123607Y808112D01*
X1123490Y807966D01*
X1123370Y807823D01*
X1123246Y807683D01*
X1123119Y807546D01*
X1122988Y807412D01*
X1122854Y807281D01*
X1122717Y807154D01*
X1122577Y807030D01*
X1122434Y806910D01*
X1122288Y806793D01*
X1122139Y806680D01*
X1121988Y806570D01*
X1121833Y806464D01*
X1121677Y806362D01*
X1121517Y806264D01*
X1121356Y806170D01*
X1121192Y806080D01*
X1121026Y805994D01*
X1120858Y805912D01*
X1120688Y805834D01*
X1120516Y805760D01*
X1120342Y805691D01*
X1120167Y805625D01*
X1119990Y805565D01*
X1119812Y805508D01*
X1119632Y805456D01*
X1119452Y805408D01*
X1119270Y805365D01*
X1119087Y805326D01*
X1118903Y805292D01*
X1118718Y805262D01*
X1118533Y805237D01*
X1118347Y805217D01*
X1118161Y805201D01*
X1117974Y805189D01*
X1117787Y805182D01*
X1117600Y805180D01*
X1117413Y805182D01*
X1117226Y805189D01*
X1117039Y805201D01*
X1116853Y805217D01*
X1116667Y805237D01*
X1116482Y805262D01*
X1116297Y805292D01*
X1116113Y805326D01*
X1115930Y805365D01*
X1115748Y805408D01*
X1115568Y805456D01*
X1115388Y805508D01*
X1115210Y805565D01*
X1115033Y805625D01*
X1114858Y805691D01*
X1114684Y805760D01*
X1114512Y805834D01*
X1114342Y805912D01*
X1114174Y805994D01*
X1114008Y806080D01*
X1113844Y806170D01*
X1113683Y806264D01*
X1113523Y806362D01*
X1113367Y806464D01*
X1113212Y806570D01*
X1113061Y806680D01*
X1112912Y806793D01*
X1112766Y806910D01*
X1112623Y807030D01*
X1112483Y807154D01*
X1112346Y807281D01*
X1112212Y807412D01*
X1112081Y807546D01*
X1111954Y807683D01*
X1111830Y807823D01*
X1111710Y807966D01*
X1111593Y808112D01*
X1111480Y808261D01*
X1111370Y808412D01*
X1111264Y808567D01*
X1111162Y808723D01*
X1111064Y808883D01*
X1110970Y809044D01*
X1110880Y809208D01*
X1110794Y809374D01*
X1110712Y809542D01*
X1110634Y809712D01*
X1110560Y809884D01*
X1110491Y810058D01*
X1110425Y810233D01*
X1110365Y810410D01*
X1110308Y810588D01*
X1110256Y810768D01*
X1110208Y810948D01*
X1110165Y811130D01*
X1110126Y811313D01*
X1110092Y811497D01*
X1110062Y811682D01*
X1110037Y811867D01*
X1110017Y812053D01*
X1110001Y812239D01*
X1109989Y812426D01*
X1109982Y812613D01*
X1109980Y812800D01*
D22*
X1117600Y812800D03*
D21*
X68580Y736600D02*
X68582Y736787D01*
X68589Y736974D01*
X68601Y737161D01*
X68617Y737347D01*
X68637Y737533D01*
X68662Y737718D01*
X68692Y737903D01*
X68726Y738087D01*
X68765Y738270D01*
X68808Y738452D01*
X68856Y738632D01*
X68908Y738812D01*
X68965Y738990D01*
X69025Y739167D01*
X69091Y739342D01*
X69160Y739516D01*
X69234Y739688D01*
X69312Y739858D01*
X69394Y740026D01*
X69480Y740192D01*
X69570Y740356D01*
X69664Y740517D01*
X69762Y740677D01*
X69864Y740833D01*
X69970Y740988D01*
X70080Y741139D01*
X70193Y741288D01*
X70310Y741434D01*
X70430Y741577D01*
X70554Y741717D01*
X70681Y741854D01*
X70812Y741988D01*
X70946Y742119D01*
X71083Y742246D01*
X71223Y742370D01*
X71366Y742490D01*
X71512Y742607D01*
X71661Y742720D01*
X71812Y742830D01*
X71967Y742936D01*
X72123Y743038D01*
X72283Y743136D01*
X72444Y743230D01*
X72608Y743320D01*
X72774Y743406D01*
X72942Y743488D01*
X73112Y743566D01*
X73284Y743640D01*
X73458Y743709D01*
X73633Y743775D01*
X73810Y743835D01*
X73988Y743892D01*
X74168Y743944D01*
X74348Y743992D01*
X74530Y744035D01*
X74713Y744074D01*
X74897Y744108D01*
X75082Y744138D01*
X75267Y744163D01*
X75453Y744183D01*
X75639Y744199D01*
X75826Y744211D01*
X76013Y744218D01*
X76200Y744220D01*
X76387Y744218D01*
X76574Y744211D01*
X76761Y744199D01*
X76947Y744183D01*
X77133Y744163D01*
X77318Y744138D01*
X77503Y744108D01*
X77687Y744074D01*
X77870Y744035D01*
X78052Y743992D01*
X78232Y743944D01*
X78412Y743892D01*
X78590Y743835D01*
X78767Y743775D01*
X78942Y743709D01*
X79116Y743640D01*
X79288Y743566D01*
X79458Y743488D01*
X79626Y743406D01*
X79792Y743320D01*
X79956Y743230D01*
X80117Y743136D01*
X80277Y743038D01*
X80433Y742936D01*
X80588Y742830D01*
X80739Y742720D01*
X80888Y742607D01*
X81034Y742490D01*
X81177Y742370D01*
X81317Y742246D01*
X81454Y742119D01*
X81588Y741988D01*
X81719Y741854D01*
X81846Y741717D01*
X81970Y741577D01*
X82090Y741434D01*
X82207Y741288D01*
X82320Y741139D01*
X82430Y740988D01*
X82536Y740833D01*
X82638Y740677D01*
X82736Y740517D01*
X82830Y740356D01*
X82920Y740192D01*
X83006Y740026D01*
X83088Y739858D01*
X83166Y739688D01*
X83240Y739516D01*
X83309Y739342D01*
X83375Y739167D01*
X83435Y738990D01*
X83492Y738812D01*
X83544Y738632D01*
X83592Y738452D01*
X83635Y738270D01*
X83674Y738087D01*
X83708Y737903D01*
X83738Y737718D01*
X83763Y737533D01*
X83783Y737347D01*
X83799Y737161D01*
X83811Y736974D01*
X83818Y736787D01*
X83820Y736600D01*
X83818Y736413D01*
X83811Y736226D01*
X83799Y736039D01*
X83783Y735853D01*
X83763Y735667D01*
X83738Y735482D01*
X83708Y735297D01*
X83674Y735113D01*
X83635Y734930D01*
X83592Y734748D01*
X83544Y734568D01*
X83492Y734388D01*
X83435Y734210D01*
X83375Y734033D01*
X83309Y733858D01*
X83240Y733684D01*
X83166Y733512D01*
X83088Y733342D01*
X83006Y733174D01*
X82920Y733008D01*
X82830Y732844D01*
X82736Y732683D01*
X82638Y732523D01*
X82536Y732367D01*
X82430Y732212D01*
X82320Y732061D01*
X82207Y731912D01*
X82090Y731766D01*
X81970Y731623D01*
X81846Y731483D01*
X81719Y731346D01*
X81588Y731212D01*
X81454Y731081D01*
X81317Y730954D01*
X81177Y730830D01*
X81034Y730710D01*
X80888Y730593D01*
X80739Y730480D01*
X80588Y730370D01*
X80433Y730264D01*
X80277Y730162D01*
X80117Y730064D01*
X79956Y729970D01*
X79792Y729880D01*
X79626Y729794D01*
X79458Y729712D01*
X79288Y729634D01*
X79116Y729560D01*
X78942Y729491D01*
X78767Y729425D01*
X78590Y729365D01*
X78412Y729308D01*
X78232Y729256D01*
X78052Y729208D01*
X77870Y729165D01*
X77687Y729126D01*
X77503Y729092D01*
X77318Y729062D01*
X77133Y729037D01*
X76947Y729017D01*
X76761Y729001D01*
X76574Y728989D01*
X76387Y728982D01*
X76200Y728980D01*
X76013Y728982D01*
X75826Y728989D01*
X75639Y729001D01*
X75453Y729017D01*
X75267Y729037D01*
X75082Y729062D01*
X74897Y729092D01*
X74713Y729126D01*
X74530Y729165D01*
X74348Y729208D01*
X74168Y729256D01*
X73988Y729308D01*
X73810Y729365D01*
X73633Y729425D01*
X73458Y729491D01*
X73284Y729560D01*
X73112Y729634D01*
X72942Y729712D01*
X72774Y729794D01*
X72608Y729880D01*
X72444Y729970D01*
X72283Y730064D01*
X72123Y730162D01*
X71967Y730264D01*
X71812Y730370D01*
X71661Y730480D01*
X71512Y730593D01*
X71366Y730710D01*
X71223Y730830D01*
X71083Y730954D01*
X70946Y731081D01*
X70812Y731212D01*
X70681Y731346D01*
X70554Y731483D01*
X70430Y731623D01*
X70310Y731766D01*
X70193Y731912D01*
X70080Y732061D01*
X69970Y732212D01*
X69864Y732367D01*
X69762Y732523D01*
X69664Y732683D01*
X69570Y732844D01*
X69480Y733008D01*
X69394Y733174D01*
X69312Y733342D01*
X69234Y733512D01*
X69160Y733684D01*
X69091Y733858D01*
X69025Y734033D01*
X68965Y734210D01*
X68908Y734388D01*
X68856Y734568D01*
X68808Y734748D01*
X68765Y734930D01*
X68726Y735113D01*
X68692Y735297D01*
X68662Y735482D01*
X68637Y735667D01*
X68617Y735853D01*
X68601Y736039D01*
X68589Y736226D01*
X68582Y736413D01*
X68580Y736600D01*
D22*
X76200Y736600D03*
M02*
